<svg xmlns="http://www.w3.org/2000/svg" xmlns:xlink="http://www.w3.org/1999/xlink" width="500" zoomAndPan="magnify" viewBox="0 0 375 374.999991" height="500" preserveAspectRatio="xMidYMid meet" version="1.0"><defs><g/><clipPath id="e50ca31d76"><rect x="0" width="134" y="0" height="91"/></clipPath><clipPath id="e33f2c8f1f"><path d="M 109.886719 235.128906 L 282 235.128906 L 282 244.128906 L 109.886719 244.128906 Z M 109.886719 235.128906 " clip-rule="nonzero"/></clipPath><clipPath id="3c6a1a0144"><rect x="0" width="80" y="0" height="81"/></clipPath></defs><g fill="#edb8b6" fill-opacity="1"><g transform="translate(0.528475, 229.120269)"><g><path d="M 85.53125 -19.4375 C 86.289062 -19.4375 86.882812 -19.085938 87.3125 -18.390625 C 87.75 -17.691406 87.96875 -16.734375 87.96875 -15.515625 C 87.96875 -13.253906 87.414062 -11.453125 86.3125 -10.109375 C 83.519531 -6.742188 80.703125 -4.144531 77.859375 -2.3125 C 75.015625 -0.476562 71.644531 0.4375 67.75 0.4375 C 63.96875 0.4375 60.753906 -0.578125 58.109375 -2.609375 C 55.460938 -4.648438 52.945312 -8.140625 50.5625 -13.078125 C 48.644531 -17.023438 47.132812 -19.941406 46.03125 -21.828125 C 44.925781 -23.722656 43.835938 -25.078125 42.765625 -25.890625 C 41.691406 -26.703125 40.367188 -27.195312 38.796875 -27.375 C 38.566406 -26.15625 37.898438 -22.320312 36.796875 -15.875 C 36.328125 -12.96875 36.035156 -11.191406 35.921875 -10.546875 C 35.335938 -7.003906 34.171875 -4.285156 32.421875 -2.390625 C 30.679688 -0.503906 28.039062 0.4375 24.5 0.4375 C 20.601562 0.4375 17.15625 -0.707031 14.15625 -3 C 11.164062 -5.300781 8.859375 -8.5 7.234375 -12.59375 C 5.609375 -16.695312 4.796875 -21.363281 4.796875 -26.59375 C 4.796875 -36.351562 6.492188 -44.78125 9.890625 -51.875 C 13.296875 -58.96875 18.0625 -64.390625 24.1875 -68.140625 C 30.320312 -71.890625 37.398438 -73.765625 45.421875 -73.765625 C 51.003906 -73.765625 55.679688 -72.921875 59.453125 -71.234375 C 63.234375 -69.546875 66.039062 -67.21875 67.875 -64.25 C 69.707031 -61.289062 70.625 -57.953125 70.625 -54.234375 C 70.625 -50.972656 69.851562 -47.785156 68.3125 -44.671875 C 66.769531 -41.566406 64.457031 -38.820312 61.375 -36.4375 C 58.300781 -34.0625 54.554688 -32.289062 50.140625 -31.125 C 52.921875 -30.375 55.066406 -29.15625 56.578125 -27.46875 C 58.097656 -25.78125 59.613281 -23.304688 61.125 -20.046875 C 62.75 -16.566406 64.359375 -14.007812 65.953125 -12.375 C 67.554688 -10.75 69.40625 -9.9375 71.5 -9.9375 C 73.351562 -9.9375 75.125 -10.5625 76.8125 -11.8125 C 78.5 -13.0625 80.617188 -15.195312 83.171875 -18.21875 C 83.867188 -19.03125 84.65625 -19.4375 85.53125 -19.4375 Z M 26.765625 -27.46875 C 24.785156 -27.46875 23.429688 -27.929688 22.703125 -28.859375 C 21.984375 -29.785156 21.625 -30.832031 21.625 -32 C 21.625 -33.394531 22.070312 -34.5 22.96875 -35.3125 C 23.875 -36.125 24.90625 -36.53125 26.0625 -36.53125 L 28.25 -36.53125 C 29.175781 -42.226562 30.046875 -47.140625 30.859375 -51.265625 C 31.617188 -55.046875 34.0625 -56.9375 38.1875 -56.9375 C 41.5 -56.9375 43.15625 -55.453125 43.15625 -52.484375 C 43.15625 -51.847656 43.128906 -51.351562 43.078125 -51 L 40.453125 -36.53125 C 43.585938 -36.707031 46.445312 -37.460938 49.03125 -38.796875 C 51.625 -40.128906 53.691406 -41.988281 55.234375 -44.375 C 56.773438 -46.757812 57.546875 -49.460938 57.546875 -52.484375 C 57.546875 -56.148438 56.296875 -59.023438 53.796875 -61.109375 C 51.296875 -63.203125 47.632812 -64.25 42.8125 -64.25 C 37.113281 -64.25 32.128906 -62.835938 27.859375 -60.015625 C 23.585938 -57.203125 20.257812 -53.019531 17.875 -47.46875 C 15.488281 -41.914062 14.296875 -35.160156 14.296875 -27.203125 C 14.296875 -23.484375 14.671875 -20.285156 15.421875 -17.609375 C 16.179688 -14.929688 17.113281 -12.925781 18.21875 -11.59375 C 19.320312 -10.257812 20.367188 -9.59375 21.359375 -9.59375 C 22.117188 -9.59375 22.742188 -9.96875 23.234375 -10.71875 C 23.734375 -11.476562 24.125 -12.703125 24.40625 -14.390625 Z M 26.765625 -27.46875 "/></g></g></g><g fill="#edb8b6" fill-opacity="1"><g transform="translate(77.253496, 229.120269)"><g><path d="M 43.078125 -19.4375 C 43.828125 -19.4375 44.421875 -19.085938 44.859375 -18.390625 C 45.296875 -17.691406 45.515625 -16.734375 45.515625 -15.515625 C 45.515625 -13.191406 44.960938 -11.390625 43.859375 -10.109375 C 41.703125 -7.492188 38.660156 -5.082031 34.734375 -2.875 C 30.816406 -0.664062 26.617188 0.4375 22.140625 0.4375 C 16.035156 0.4375 11.296875 -1.21875 7.921875 -4.53125 C 4.554688 -7.84375 2.875 -12.378906 2.875 -18.140625 C 2.875 -22.148438 3.71875 -25.882812 5.40625 -29.34375 C 7.09375 -32.800781 9.429688 -35.546875 12.421875 -37.578125 C 15.421875 -39.609375 18.804688 -40.625 22.578125 -40.625 C 25.953125 -40.625 28.65625 -39.617188 30.6875 -37.609375 C 32.71875 -35.609375 33.734375 -32.894531 33.734375 -29.46875 C 33.734375 -25.457031 32.296875 -22.015625 29.421875 -19.140625 C 26.546875 -16.265625 21.679688 -13.984375 14.828125 -12.296875 C 16.273438 -9.617188 19.035156 -8.28125 23.109375 -8.28125 C 25.722656 -8.28125 28.703125 -9.195312 32.046875 -11.03125 C 35.390625 -12.863281 38.28125 -15.257812 40.71875 -18.21875 C 41.414062 -19.03125 42.203125 -19.4375 43.078125 -19.4375 Z M 21.09375 -32.078125 C 18.945312 -32.078125 17.128906 -30.828125 15.640625 -28.328125 C 14.160156 -25.835938 13.421875 -22.816406 13.421875 -19.265625 L 13.421875 -19.09375 C 16.859375 -19.90625 19.5625 -21.125 21.53125 -22.75 C 23.507812 -24.382812 24.5 -26.273438 24.5 -28.421875 C 24.5 -29.523438 24.191406 -30.410156 23.578125 -31.078125 C 22.972656 -31.742188 22.144531 -32.078125 21.09375 -32.078125 Z M 21.09375 -32.078125 "/></g></g></g><g fill="#edb8b6" fill-opacity="1"><g transform="translate(111.518191, 229.120269)"><g><path d="M 14.90625 0.4375 C 11.300781 0.4375 8.421875 -0.867188 6.265625 -3.484375 C 4.117188 -6.097656 3.046875 -9.53125 3.046875 -13.78125 C 3.046875 -18.425781 4.117188 -22.828125 6.265625 -26.984375 C 8.421875 -31.140625 11.285156 -34.476562 14.859375 -37 C 18.441406 -39.53125 22.238281 -40.796875 26.25 -40.796875 C 27.519531 -40.796875 28.375 -40.550781 28.8125 -40.0625 C 29.25 -39.570312 29.613281 -38.6875 29.90625 -37.40625 C 31.125 -37.632812 32.398438 -37.75 33.734375 -37.75 C 36.585938 -37.75 38.015625 -36.734375 38.015625 -34.703125 C 38.015625 -33.484375 37.578125 -30.578125 36.703125 -25.984375 C 35.367188 -19.296875 34.703125 -14.644531 34.703125 -12.03125 C 34.703125 -11.15625 34.921875 -10.457031 35.359375 -9.9375 C 35.796875 -9.414062 36.363281 -9.15625 37.0625 -9.15625 C 38.164062 -9.15625 39.5 -9.863281 41.0625 -11.28125 C 42.632812 -12.707031 44.757812 -15.019531 47.4375 -18.21875 C 48.125 -19.03125 48.90625 -19.4375 49.78125 -19.4375 C 50.539062 -19.4375 51.132812 -19.085938 51.5625 -18.390625 C 52 -17.691406 52.21875 -16.734375 52.21875 -15.515625 C 52.21875 -13.191406 51.664062 -11.390625 50.5625 -10.109375 C 48.1875 -7.148438 45.660156 -4.648438 42.984375 -2.609375 C 40.304688 -0.578125 37.71875 0.4375 35.21875 0.4375 C 33.300781 0.4375 31.539062 -0.210938 29.9375 -1.515625 C 28.34375 -2.828125 27.140625 -4.617188 26.328125 -6.890625 C 23.304688 -2.003906 19.5 0.4375 14.90625 0.4375 Z M 18.046875 -8.375 C 19.328125 -8.375 20.546875 -9.128906 21.703125 -10.640625 C 22.867188 -12.148438 23.710938 -14.15625 24.234375 -16.65625 L 27.46875 -32.703125 C 25.019531 -32.640625 22.765625 -31.722656 20.703125 -29.953125 C 18.640625 -28.179688 17 -25.84375 15.78125 -22.9375 C 14.5625 -20.03125 13.953125 -16.945312 13.953125 -13.6875 C 13.953125 -11.882812 14.3125 -10.546875 15.03125 -9.671875 C 15.757812 -8.804688 16.765625 -8.375 18.046875 -8.375 Z M 18.046875 -8.375 "/></g></g></g><g fill="#edb8b6" fill-opacity="1"><g transform="translate(152.496323, 229.120269)"><g><path d="M 53.703125 -19.4375 C 54.460938 -19.4375 55.0625 -19.085938 55.5 -18.390625 C 55.9375 -17.691406 56.15625 -16.734375 56.15625 -15.515625 C 56.15625 -13.191406 55.601562 -11.390625 54.5 -10.109375 C 52.113281 -7.203125 49.492188 -4.71875 46.640625 -2.65625 C 43.796875 -0.59375 40.976562 0.4375 38.1875 0.4375 C 33.769531 0.4375 30.398438 -2.148438 28.078125 -7.328125 C 25.628906 -4.242188 23.488281 -2.175781 21.65625 -1.125 C 19.832031 -0.0820312 17.703125 0.4375 15.265625 0.4375 C 11.710938 0.4375 8.785156 -0.882812 6.484375 -3.53125 C 4.191406 -6.175781 3.046875 -9.617188 3.046875 -13.859375 C 3.046875 -18.515625 4.035156 -22.832031 6.015625 -26.8125 C 7.992188 -30.789062 10.710938 -34.046875 14.171875 -36.578125 C 17.628906 -39.109375 21.507812 -40.601562 25.8125 -41.0625 C 26.914062 -52.34375 29.019531 -61.976562 32.125 -69.96875 C 35.238281 -77.957031 39.320312 -81.953125 44.375 -81.953125 C 46.875 -81.953125 48.953125 -80.816406 50.609375 -78.546875 C 52.265625 -76.285156 53.09375 -72.859375 53.09375 -68.265625 C 53.09375 -61.753906 51.492188 -54.140625 48.296875 -45.421875 C 45.097656 -36.703125 40.828125 -27.753906 35.484375 -18.578125 C 35.710938 -15.203125 36.21875 -12.785156 37 -11.328125 C 37.789062 -9.878906 38.796875 -9.15625 40.015625 -9.15625 C 41.585938 -9.15625 43.1875 -9.851562 44.8125 -11.25 C 46.4375 -12.644531 48.617188 -14.96875 51.359375 -18.21875 C 52.054688 -19.03125 52.835938 -19.4375 53.703125 -19.4375 Z M 43.421875 -73.40625 C 42.316406 -73.40625 41.210938 -71.441406 40.109375 -67.515625 C 39.003906 -63.597656 38.054688 -58.472656 37.265625 -52.140625 C 36.484375 -45.804688 35.921875 -39.179688 35.578125 -32.265625 C 42.085938 -46.441406 45.34375 -57.832031 45.34375 -66.4375 C 45.34375 -68.644531 45.148438 -70.359375 44.765625 -71.578125 C 44.390625 -72.796875 43.941406 -73.40625 43.421875 -73.40625 Z M 18.3125 -8.375 C 19.414062 -8.375 20.519531 -8.820312 21.625 -9.71875 C 22.726562 -10.625 24.125 -12.296875 25.8125 -14.734375 C 25.226562 -17.867188 24.9375 -21.382812 24.9375 -25.28125 C 24.9375 -26.675781 24.992188 -28.941406 25.109375 -32.078125 C 21.910156 -31.097656 19.25 -28.960938 17.125 -25.671875 C 15.007812 -22.390625 13.953125 -18.742188 13.953125 -14.734375 C 13.953125 -10.492188 15.40625 -8.375 18.3125 -8.375 Z M 18.3125 -8.375 "/></g></g></g><g transform="matrix(1, 0, 0, 1, 213, 161)"><g clip-path="url(#e50ca31d76)"><g fill="#edb8b6" fill-opacity="1"><g transform="translate(1.465279, 67.920377)"><g><path d="M 14.96875 -8.484375 L 29.359375 -8.484375 L 29.359375 0 L 3.984375 0 L 3.984375 -45.109375 L 14.96875 -45.109375 Z M 14.96875 -8.484375 "/></g></g></g><g fill="#edb8b6" fill-opacity="1"><g transform="translate(32.107843, 67.920377)"><g><path d="M 25.3125 0.453125 C 21.070312 0.453125 17.1875 -0.53125 13.65625 -2.5 C 10.125 -4.476562 7.316406 -7.234375 5.234375 -10.765625 C 3.160156 -14.296875 2.125 -18.269531 2.125 -22.6875 C 2.125 -27.09375 3.160156 -31.050781 5.234375 -34.5625 C 7.316406 -38.070312 10.125 -40.8125 13.65625 -42.78125 C 17.1875 -44.757812 21.070312 -45.75 25.3125 -45.75 C 29.550781 -45.75 33.4375 -44.757812 36.96875 -42.78125 C 40.507812 -40.8125 43.296875 -38.070312 45.328125 -34.5625 C 47.359375 -31.050781 48.375 -27.09375 48.375 -22.6875 C 48.375 -18.269531 47.347656 -14.296875 45.296875 -10.765625 C 43.242188 -7.234375 40.457031 -4.476562 36.9375 -2.5 C 33.425781 -0.53125 29.550781 0.453125 25.3125 0.453125 Z M 25.3125 -9.578125 C 28.914062 -9.578125 31.796875 -10.773438 33.953125 -13.171875 C 36.117188 -15.566406 37.203125 -18.738281 37.203125 -22.6875 C 37.203125 -26.664062 36.117188 -29.84375 33.953125 -32.21875 C 31.796875 -34.59375 28.914062 -35.78125 25.3125 -35.78125 C 21.675781 -35.78125 18.773438 -34.601562 16.609375 -32.25 C 14.441406 -29.894531 13.359375 -26.707031 13.359375 -22.6875 C 13.359375 -18.695312 14.441406 -15.515625 16.609375 -13.140625 C 18.773438 -10.765625 21.675781 -9.578125 25.3125 -9.578125 Z M 25.3125 -9.578125 "/></g></g></g><g fill="#edb8b6" fill-opacity="1"><g transform="translate(82.600615, 67.920377)"><g><path d="M 33.921875 -30.84375 C 33.109375 -32.34375 31.941406 -33.488281 30.421875 -34.28125 C 28.898438 -35.070312 27.113281 -35.46875 25.0625 -35.46875 C 21.5 -35.46875 18.644531 -34.300781 16.5 -31.96875 C 14.363281 -29.632812 13.296875 -26.515625 13.296875 -22.609375 C 13.296875 -18.460938 14.421875 -15.21875 16.671875 -12.875 C 18.921875 -10.539062 22.015625 -9.375 25.953125 -9.375 C 28.648438 -9.375 30.929688 -10.0625 32.796875 -11.4375 C 34.660156 -12.8125 36.019531 -14.78125 36.875 -17.34375 L 22.9375 -17.34375 L 22.9375 -25.4375 L 46.84375 -25.4375 L 46.84375 -15.234375 C 46.03125 -12.484375 44.644531 -9.929688 42.6875 -7.578125 C 40.738281 -5.222656 38.265625 -3.316406 35.265625 -1.859375 C 32.273438 -0.398438 28.894531 0.328125 25.125 0.328125 C 20.664062 0.328125 16.691406 -0.644531 13.203125 -2.59375 C 9.710938 -4.550781 6.992188 -7.265625 5.046875 -10.734375 C 3.097656 -14.203125 2.125 -18.160156 2.125 -22.609375 C 2.125 -27.066406 3.097656 -31.039062 5.046875 -34.53125 C 6.992188 -38.019531 9.703125 -40.738281 13.171875 -42.6875 C 16.640625 -44.644531 20.601562 -45.625 25.0625 -45.625 C 30.457031 -45.625 35.003906 -44.316406 38.703125 -41.703125 C 42.410156 -39.085938 44.863281 -35.46875 46.0625 -30.84375 Z M 33.921875 -30.84375 "/></g></g></g></g></g><g clip-path="url(#e33f2c8f1f)"><path fill="#edb8b6" d="M 279.902344 240.042969 C 270.132812 239.835938 260.355469 239.683594 250.582031 239.582031 C 251.3125 239.410156 251.945312 239.125 252.371094 238.652344 C 252.636719 238.359375 252.496094 237.914062 252.367188 237.609375 C 252.261719 237.355469 252.015625 236.789062 251.550781 236.707031 C 242.9375 235.1875 233.882812 235.308594 225.027344 235.390625 C 215.789062 235.476562 206.550781 235.714844 197.332031 236.101562 C 178.925781 236.875 160.691406 238.367188 142.488281 240.246094 C 137.332031 240.777344 132.171875 241.300781 127.011719 241.808594 C 124.519531 242.054688 122.027344 242.289062 119.527344 242.503906 C 118.230469 242.613281 116.933594 242.734375 115.636719 242.851562 C 114.992188 242.90625 114.347656 242.972656 113.703125 243.035156 C 113.488281 243.054688 113.269531 243.074219 113.054688 243.09375 C 112.679688 243.128906 112.308594 243.160156 111.933594 243.1875 C 111.625 243.261719 111.320312 243.34375 111.019531 243.433594 C 110.691406 243.503906 110.152344 243.648438 109.984375 243.859375 C 109.902344 243.96875 109.894531 244.039062 109.988281 244.070312 C 109.984375 244.074219 109.980469 244.074219 109.976562 244.074219 C 110.375 244.144531 110.660156 244.226562 111.074219 244.226562 C 111.300781 244.222656 111.53125 244.214844 111.761719 244.210938 C 112.332031 244.195312 112.90625 244.183594 113.480469 244.167969 C 113.695312 244.160156 113.914062 244.152344 114.132812 244.144531 C 115.023438 244.21875 115.910156 244.304688 116.789062 244.351562 C 116.878906 244.359375 116.695312 244.136719 116.582031 244.125 C 116.394531 244.105469 116.203125 244.082031 116.015625 244.066406 C 116.425781 244.046875 116.839844 244.027344 117.25 244.011719 C 119.632812 243.917969 122.011719 243.730469 124.382812 243.5625 C 129.070312 243.230469 133.738281 242.8125 138.410156 242.390625 C 147.695312 241.554688 156.960938 240.652344 166.277344 239.953125 C 184.699219 238.5625 203.207031 237.695312 221.753906 237.445312 C 229.464844 237.34375 237.40625 237.121094 245.105469 237.796875 C 242.855469 237.773438 240.605469 237.757812 238.351562 237.769531 C 233.109375 237.800781 227.871094 237.945312 222.640625 238.175781 C 213.140625 238.585938 203.679688 239.28125 194.242188 240.089844 C 187.183594 240.472656 180.152344 241.058594 173.222656 242 C 172.460938 242.105469 173.140625 244.09375 173.980469 244.011719 C 179.910156 243.429688 185.855469 242.855469 191.808594 242.332031 C 199.714844 241.820312 207.664062 241.578125 215.617188 241.484375 C 229.597656 241.324219 243.59375 241.445312 257.570312 241.617188 C 262.824219 241.679688 268.078125 241.761719 273.335938 241.855469 C 273.414062 242.089844 273.554688 242.257812 273.761719 242.246094 C 276.335938 242.144531 278.917969 242.148438 281.492188 242.011719 C 282.414062 241.964844 280.804688 240.058594 279.902344 240.042969 " fill-opacity="1" fill-rule="nonzero"/></g><g transform="matrix(1, 0, 0, 1, 295, 140)"><g clip-path="url(#3c6a1a0144)"><g fill="#edb8b6" fill-opacity="1"><g transform="translate(12.144837, 44.095876)"><g><path d="M 1.828125 -4.40625 L -1.6875 -3.921875 L -2.140625 -2.828125 L 0.6875 -1.65625 L 0.3125 -0.765625 L -6.59375 -3.625 L -5.671875 -5.84375 C -5.453125 -6.363281 -5.175781 -6.765625 -4.84375 -7.046875 C -4.507812 -7.335938 -4.15625 -7.507812 -3.78125 -7.5625 C -3.40625 -7.625 -3.023438 -7.570312 -2.640625 -7.40625 C -2.160156 -7.207031 -1.796875 -6.894531 -1.546875 -6.46875 C -1.304688 -6.039062 -1.238281 -5.53125 -1.34375 -4.9375 L 2.265625 -5.46875 Z M -2.859375 -3.125 L -2.3125 -4.453125 C -2.101562 -4.941406 -2.066406 -5.359375 -2.203125 -5.703125 C -2.347656 -6.046875 -2.625 -6.300781 -3.03125 -6.46875 C -3.4375 -6.632812 -3.800781 -6.644531 -4.125 -6.5 C -4.457031 -6.351562 -4.726562 -6.03125 -4.9375 -5.53125 L -5.484375 -4.203125 Z M -2.859375 -3.125 "/></g></g></g><g fill="#edb8b6" fill-opacity="1"><g transform="translate(14.34292, 38.729739)"><g><path d="M -4.484375 -5.265625 L -2.4375 -3.859375 L -0.890625 -6.09375 L -0.21875 -5.640625 L -1.765625 -3.40625 L 0.359375 -1.9375 L 2.09375 -4.4375 L 2.75 -3.984375 L 0.46875 -0.6875 L -5.6875 -4.9375 L -3.40625 -8.234375 L -2.75 -7.765625 Z M -4.484375 -5.265625 "/></g></g></g><g fill="#edb8b6" fill-opacity="1"><g transform="translate(16.896471, 34.711223)"><g><path d="M 2.734375 -4.765625 L 0.328125 -2.5625 L 1.015625 -0.9375 L 0.265625 -0.25 L -2.78125 -7.546875 L -1.953125 -8.296875 L 5.0625 -4.65625 L 4.296875 -3.953125 Z M 2 -5.171875 L -1.5625 -7.03125 L 0.015625 -3.34375 Z M 2 -5.171875 "/></g></g></g><g fill="#edb8b6" fill-opacity="1"><g transform="translate(21.491539, 30.301524)"><g><path d="M -0.671875 -8.078125 C 0.046875 -8.453125 0.738281 -8.644531 1.40625 -8.65625 C 2.070312 -8.664062 2.675781 -8.492188 3.21875 -8.140625 C 3.769531 -7.785156 4.222656 -7.273438 4.578125 -6.609375 C 4.929688 -5.929688 5.097656 -5.265625 5.078125 -4.609375 C 5.054688 -3.960938 4.847656 -3.367188 4.453125 -2.828125 C 4.066406 -2.296875 3.515625 -1.84375 2.796875 -1.46875 L 0.734375 -0.390625 L -2.734375 -7 Z M 2.421875 -2.171875 C 3.265625 -2.617188 3.789062 -3.1875 4 -3.875 C 4.21875 -4.570312 4.113281 -5.328125 3.6875 -6.140625 C 3.257812 -6.960938 2.695312 -7.484375 2 -7.703125 C 1.3125 -7.929688 0.546875 -7.820312 -0.296875 -7.375 L -1.5 -6.734375 L 1.21875 -1.53125 Z M 2.421875 -2.171875 "/></g></g></g><g fill="#edb8b6" fill-opacity="1"><g transform="translate(27.717565, 27.219453)"><g><path d="M -0.515625 -7.65625 L 1.71875 -0.53125 L 0.796875 -0.25 L -1.4375 -7.375 Z M -0.515625 -7.65625 "/></g></g></g><g fill="#edb8b6" fill-opacity="1"><g transform="translate(29.589328, 26.346803)"><g><path d="M 6.65625 -0.84375 L 5.671875 -0.71875 L 1.03125 -6.125 L 1.78125 -0.21875 L 0.828125 -0.109375 L -0.109375 -7.53125 L 0.84375 -7.640625 L 5.484375 -2.25 L 4.734375 -8.140625 L 5.71875 -8.265625 Z M 6.65625 -0.84375 "/></g></g></g><g fill="#edb8b6" fill-opacity="1"><g transform="translate(36.143061, 25.336063)"><g><path d="M 7.21875 -4.265625 C 7.070312 -4.722656 6.820312 -5.097656 6.46875 -5.390625 C 6.125 -5.679688 5.695312 -5.867188 5.1875 -5.953125 C 4.664062 -6.023438 4.175781 -5.976562 3.71875 -5.8125 C 3.269531 -5.644531 2.894531 -5.359375 2.59375 -4.953125 C 2.289062 -4.554688 2.097656 -4.0625 2.015625 -3.46875 C 1.921875 -2.894531 1.957031 -2.367188 2.125 -1.890625 C 2.289062 -1.421875 2.5625 -1.03125 2.9375 -0.71875 C 3.320312 -0.414062 3.773438 -0.226562 4.296875 -0.15625 C 5.015625 -0.0390625 5.640625 -0.160156 6.171875 -0.515625 C 6.703125 -0.878906 7.066406 -1.425781 7.265625 -2.15625 L 4.3125 -2.609375 L 4.421875 -3.390625 L 8.390625 -2.78125 L 8.28125 -2.046875 C 8.132812 -1.441406 7.859375 -0.910156 7.453125 -0.453125 C 7.054688 0.00390625 6.566406 0.335938 5.984375 0.546875 C 5.410156 0.753906 4.800781 0.804688 4.15625 0.703125 C 3.46875 0.597656 2.863281 0.34375 2.34375 -0.0625 C 1.832031 -0.46875 1.457031 -0.984375 1.21875 -1.609375 C 0.976562 -2.234375 0.914062 -2.90625 1.03125 -3.625 C 1.132812 -4.34375 1.394531 -4.960938 1.8125 -5.484375 C 2.226562 -6.015625 2.742188 -6.394531 3.359375 -6.625 C 3.984375 -6.863281 4.640625 -6.929688 5.328125 -6.828125 C 6.109375 -6.703125 6.769531 -6.394531 7.3125 -5.90625 C 7.851562 -5.425781 8.207031 -4.816406 8.375 -4.078125 Z M 7.21875 -4.265625 "/></g></g></g><g fill="#edb8b6" fill-opacity="1"><g transform="translate(43.666359, 26.705131)"><g/></g></g><g fill="#edb8b6" fill-opacity="1"><g transform="translate(45.90361, 27.31358)"><g><path d="M 4.140625 2.34375 L 4.109375 -1.203125 L 3.078125 -1.78125 L 1.5625 0.890625 L 0.71875 0.40625 L 4.390625 -6.09375 L 6.484375 -4.90625 C 6.972656 -4.625 7.335938 -4.300781 7.578125 -3.9375 C 7.828125 -3.582031 7.957031 -3.210938 7.96875 -2.828125 C 7.976562 -2.453125 7.882812 -2.082031 7.6875 -1.71875 C 7.425781 -1.269531 7.066406 -0.945312 6.609375 -0.75 C 6.160156 -0.550781 5.644531 -0.539062 5.0625 -0.71875 L 5.15625 2.921875 Z M 3.453125 -2.453125 L 4.703125 -1.75 C 5.171875 -1.488281 5.582031 -1.40625 5.9375 -1.5 C 6.300781 -1.601562 6.59375 -1.84375 6.8125 -2.21875 C 7.019531 -2.601562 7.066406 -2.960938 6.953125 -3.296875 C 6.847656 -3.640625 6.5625 -3.945312 6.09375 -4.21875 L 4.84375 -4.921875 Z M 3.453125 -2.453125 "/></g></g></g><g fill="#edb8b6" fill-opacity="1"><g transform="translate(50.960446, 30.15117)"><g><path d="M 5.78125 -3.796875 L 4.125 -1.9375 L 6.15625 -0.125 L 5.609375 0.484375 L 3.578125 -1.328125 L 1.875 0.59375 L 4.15625 2.625 L 3.625 3.21875 L 0.625 0.546875 L 5.59375 -5.046875 L 8.59375 -2.375 L 8.0625 -1.765625 Z M 5.78125 -3.796875 "/></g></g></g><g fill="#edb8b6" fill-opacity="1"><g transform="translate(54.62316, 33.326724)"><g><path d="M 9 -0.515625 L 8.359375 -0.03125 L 6.390625 -2.625 L 4.390625 -1.109375 L 6 1 L 5.375 1.484375 L 3.765625 -0.625 L 1.09375 1.421875 L 0.5 0.65625 L 6.4375 -3.875 Z M 9 -0.515625 "/></g></g></g><g fill="#edb8b6" fill-opacity="1"><g transform="translate(57.552927, 37.12536)"><g><path d="M 1.53125 1.234375 L 2.734375 3.5625 L 2.03125 3.921875 L 0.375 0.734375 L 7.015625 -2.6875 L 7.46875 -1.828125 Z M 1.53125 1.234375 "/></g></g></g><g fill="#edb8b6" fill-opacity="1"><g transform="translate(59.482833, 40.660495)"><g><path d="M 6.90625 -0.25 L 4.53125 0.484375 L 5.328125 3.078125 L 4.546875 3.3125 L 3.75 0.71875 L 1.296875 1.484375 L 2.1875 4.390625 L 1.421875 4.625 L 0.25 0.796875 L 7.40625 -1.40625 L 8.578125 2.421875 L 7.796875 2.65625 Z M 6.90625 -0.25 "/></g></g></g><g fill="#edb8b6" fill-opacity="1"><g transform="translate(61.122954, 45.085926)"><g><path d="M 3.765625 0.234375 C 4.492188 0.191406 5.15625 0.320312 5.75 0.625 C 6.34375 0.925781 6.816406 1.351562 7.171875 1.90625 C 7.535156 2.457031 7.738281 3.078125 7.78125 3.765625 C 7.832031 4.566406 7.675781 5.28125 7.3125 5.90625 C 6.957031 6.539062 6.429688 7.019531 5.734375 7.34375 L 5.671875 6.171875 C 6.097656 5.929688 6.421875 5.609375 6.640625 5.203125 C 6.859375 4.804688 6.953125 4.34375 6.921875 3.8125 C 6.890625 3.289062 6.742188 2.828125 6.484375 2.421875 C 6.222656 2.023438 5.863281 1.71875 5.40625 1.5 C 4.945312 1.289062 4.414062 1.203125 3.8125 1.234375 C 3.21875 1.273438 2.707031 1.425781 2.28125 1.6875 C 1.851562 1.945312 1.523438 2.289062 1.296875 2.71875 C 1.078125 3.144531 0.984375 3.617188 1.015625 4.140625 C 1.046875 4.671875 1.191406 5.125 1.453125 5.5 C 1.710938 5.882812 2.078125 6.164062 2.546875 6.34375 L 2.609375 7.515625 C 1.878906 7.273438 1.300781 6.859375 0.875 6.265625 C 0.457031 5.679688 0.222656 4.988281 0.171875 4.1875 C 0.128906 3.5 0.253906 2.863281 0.546875 2.28125 C 0.835938 1.695312 1.265625 1.21875 1.828125 0.84375 C 2.390625 0.476562 3.035156 0.273438 3.765625 0.234375 Z M 3.765625 0.234375 "/></g></g></g><g fill="#edb8b6" fill-opacity="1"><g transform="translate(61.495698, 52.509666)"><g><path d="M 6.296875 6.734375 L 5.515625 6.59375 L 5.90625 4.59375 L -0.640625 3.328125 L -0.453125 2.359375 L 6.09375 3.625 L 6.484375 1.625 L 7.265625 1.765625 Z M 6.296875 6.734375 "/></g></g></g><g fill="#edb8b6" fill-opacity="1"><g transform="translate(60.41884, 57.678873)"><g><path d="M 6.453125 4.171875 L -0.59375 1.6875 L -0.28125 0.78125 L 6.765625 3.265625 Z M 6.453125 4.171875 "/></g></g></g><g fill="#edb8b6" fill-opacity="1"><g transform="translate(60.077412, 59.684004)"><g><path d="M -2.203125 3.59375 C -1.847656 2.988281 -1.382812 2.519531 -0.8125 2.1875 C -0.238281 1.863281 0.378906 1.707031 1.046875 1.71875 C 1.710938 1.726562 2.359375 1.914062 2.984375 2.28125 C 3.609375 2.65625 4.085938 3.132812 4.421875 3.71875 C 4.765625 4.300781 4.929688 4.921875 4.921875 5.578125 C 4.910156 6.242188 4.726562 6.878906 4.375 7.484375 C 4.019531 8.078125 3.554688 8.535156 2.984375 8.859375 C 2.410156 9.191406 1.789062 9.351562 1.125 9.34375 C 0.457031 9.332031 -0.191406 9.132812 -0.828125 8.75 C -1.453125 8.382812 -1.929688 7.910156 -2.265625 7.328125 C -2.597656 6.753906 -2.757812 6.132812 -2.75 5.46875 C -2.738281 4.8125 -2.554688 4.1875 -2.203125 3.59375 Z M -1.484375 4.03125 C -1.753906 4.476562 -1.882812 4.941406 -1.875 5.421875 C -1.875 5.910156 -1.742188 6.367188 -1.484375 6.796875 C -1.222656 7.222656 -0.835938 7.585938 -0.328125 7.890625 C 0.191406 8.203125 0.707031 8.367188 1.21875 8.390625 C 1.726562 8.421875 2.1875 8.316406 2.59375 8.078125 C 3.007812 7.835938 3.351562 7.492188 3.625 7.046875 C 3.894531 6.585938 4.03125 6.117188 4.03125 5.640625 C 4.039062 5.160156 3.914062 4.703125 3.65625 4.265625 C 3.394531 3.828125 3.003906 3.453125 2.484375 3.140625 C 1.972656 2.835938 1.460938 2.675781 0.953125 2.65625 C 0.441406 2.644531 -0.0234375 2.753906 -0.453125 2.984375 C -0.878906 3.222656 -1.222656 3.570312 -1.484375 4.03125 Z M -1.484375 4.03125 "/></g></g></g><g fill="#edb8b6" fill-opacity="1"><g transform="translate(56.325817, 66.175969)"><g><path d="M -4.875 4.609375 L -4.15625 3.921875 L 2.78125 5.5625 L -1.3125 1.234375 L -0.609375 0.5625 L 4.53125 6 L 3.828125 6.671875 L -3.09375 5.046875 L 0.984375 9.359375 L 0.265625 10.046875 Z M -4.875 4.609375 "/></g></g></g></g></g></svg>