<svg xmlns="http://www.w3.org/2000/svg" xmlns:xlink="http://www.w3.org/1999/xlink" width="500" zoomAndPan="magnify" viewBox="0 0 375 374.999991" height="500" preserveAspectRatio="xMidYMid meet" version="1.0"><defs><g/><clipPath id="d9cc7e2fd1"><rect x="0" width="201" y="0" height="147"/></clipPath><clipPath id="6d9838e697"><rect x="0" width="134" y="0" height="91"/></clipPath><clipPath id="ef79d88602"><path d="M 109.886719 235.128906 L 282 235.128906 L 282 244.128906 L 109.886719 244.128906 Z M 109.886719 235.128906 " clip-rule="nonzero"/></clipPath><clipPath id="338b6f3804"><rect x="0" width="80" y="0" height="81"/></clipPath></defs><rect x="-37.5" width="450" fill="#ffffff" y="-37.499999" height="449.999989" fill-opacity="1"/><rect x="-37.5" width="450" fill="#366560" y="-37.499999" height="449.999989" fill-opacity="1"/><g transform="matrix(1, 0, 0, 1, 9, 121)"><g clip-path="url(#d9cc7e2fd1)"><g fill="#edb8b6" fill-opacity="1"><g transform="translate(0.569771, 108.13034)"><g><path d="M 81.609375 -18.546875 C 82.328125 -18.546875 82.894531 -18.210938 83.3125 -17.546875 C 83.726562 -16.878906 83.9375 -15.96875 83.9375 -14.8125 C 83.9375 -12.644531 83.410156 -10.925781 82.359375 -9.65625 C 79.691406 -6.4375 77 -3.953125 74.28125 -2.203125 C 71.5625 -0.453125 68.347656 0.421875 64.640625 0.421875 C 61.035156 0.421875 57.96875 -0.546875 55.4375 -2.484375 C 52.914062 -4.429688 50.519531 -7.765625 48.25 -12.484375 C 46.414062 -16.253906 44.972656 -19.039062 43.921875 -20.84375 C 42.867188 -22.644531 41.828125 -23.929688 40.796875 -24.703125 C 39.773438 -25.484375 38.515625 -25.957031 37.015625 -26.125 C 36.796875 -24.957031 36.160156 -21.296875 35.109375 -15.140625 C 34.660156 -12.367188 34.378906 -10.675781 34.265625 -10.0625 C 33.710938 -6.675781 32.601562 -4.082031 30.9375 -2.28125 C 29.28125 -0.476562 26.757812 0.421875 23.375 0.421875 C 19.65625 0.421875 16.367188 -0.671875 13.515625 -2.859375 C 10.660156 -5.054688 8.457031 -8.109375 6.90625 -12.015625 C 5.351562 -15.929688 4.578125 -20.382812 4.578125 -25.375 C 4.578125 -34.6875 6.195312 -42.722656 9.4375 -49.484375 C 12.6875 -56.253906 17.234375 -61.425781 23.078125 -65 C 28.929688 -68.582031 35.6875 -70.375 43.34375 -70.375 C 48.664062 -70.375 53.128906 -69.566406 56.734375 -67.953125 C 60.335938 -66.347656 63.007812 -64.128906 64.75 -61.296875 C 66.5 -58.472656 67.375 -55.289062 67.375 -51.75 C 67.375 -48.632812 66.640625 -45.59375 65.171875 -42.625 C 63.703125 -39.664062 61.5 -37.046875 58.5625 -34.765625 C 55.625 -32.492188 52.046875 -30.804688 47.828125 -29.703125 C 50.492188 -28.972656 52.546875 -27.804688 53.984375 -26.203125 C 55.429688 -24.597656 56.875 -22.242188 58.3125 -19.140625 C 59.863281 -15.804688 61.398438 -13.363281 62.921875 -11.8125 C 64.453125 -10.257812 66.21875 -9.484375 68.21875 -9.484375 C 69.988281 -9.484375 71.675781 -10.078125 73.28125 -11.265625 C 74.894531 -12.460938 76.921875 -14.503906 79.359375 -17.390625 C 80.023438 -18.160156 80.773438 -18.546875 81.609375 -18.546875 Z M 25.53125 -26.203125 C 23.644531 -26.203125 22.351562 -26.644531 21.65625 -27.53125 C 20.96875 -28.414062 20.625 -29.414062 20.625 -30.53125 C 20.625 -31.863281 21.050781 -32.914062 21.90625 -33.6875 C 22.769531 -34.46875 23.757812 -34.859375 24.875 -34.859375 L 26.953125 -34.859375 C 27.835938 -40.296875 28.671875 -44.984375 29.453125 -48.921875 C 30.171875 -52.523438 32.5 -54.328125 36.4375 -54.328125 C 39.59375 -54.328125 41.171875 -52.910156 41.171875 -50.078125 C 41.171875 -49.460938 41.144531 -48.992188 41.09375 -48.671875 L 38.59375 -34.859375 C 41.59375 -35.023438 44.328125 -35.742188 46.796875 -37.015625 C 49.265625 -38.296875 51.234375 -40.070312 52.703125 -42.34375 C 54.171875 -44.613281 54.90625 -47.191406 54.90625 -50.078125 C 54.90625 -53.566406 53.710938 -56.3125 51.328125 -58.3125 C 48.941406 -60.3125 45.445312 -61.3125 40.84375 -61.3125 C 35.40625 -61.3125 30.648438 -59.960938 26.578125 -57.265625 C 22.503906 -54.578125 19.328125 -50.582031 17.046875 -45.28125 C 14.773438 -39.988281 13.640625 -33.546875 13.640625 -25.953125 C 13.640625 -22.398438 14 -19.347656 14.71875 -16.796875 C 15.445312 -14.253906 16.335938 -12.34375 17.390625 -11.0625 C 18.441406 -9.789062 19.4375 -9.15625 20.375 -9.15625 C 21.101562 -9.15625 21.703125 -9.515625 22.171875 -10.234375 C 22.640625 -10.953125 23.015625 -12.113281 23.296875 -13.71875 Z M 25.53125 -26.203125 "/></g></g></g><g fill="#edb8b6" fill-opacity="1"><g transform="translate(73.774261, 108.13034)"><g><path d="M 41.09375 -18.546875 C 41.8125 -18.546875 42.378906 -18.210938 42.796875 -17.546875 C 43.210938 -16.878906 43.421875 -15.96875 43.421875 -14.8125 C 43.421875 -12.59375 42.894531 -10.875 41.84375 -9.65625 C 39.789062 -7.15625 36.890625 -4.847656 33.140625 -2.734375 C 29.398438 -0.628906 25.394531 0.421875 21.125 0.421875 C 15.300781 0.421875 10.78125 -1.15625 7.5625 -4.3125 C 4.351562 -7.476562 2.75 -11.804688 2.75 -17.296875 C 2.75 -21.128906 3.550781 -24.691406 5.15625 -27.984375 C 6.757812 -31.285156 8.988281 -33.90625 11.84375 -35.84375 C 14.707031 -37.789062 17.941406 -38.765625 21.546875 -38.765625 C 24.765625 -38.765625 27.34375 -37.804688 29.28125 -35.890625 C 31.21875 -33.984375 32.1875 -31.394531 32.1875 -28.125 C 32.1875 -24.289062 30.8125 -21 28.0625 -18.25 C 25.320312 -15.507812 20.679688 -13.335938 14.140625 -11.734375 C 15.523438 -9.179688 18.160156 -7.90625 22.046875 -7.90625 C 24.535156 -7.90625 27.375 -8.773438 30.5625 -10.515625 C 33.757812 -12.265625 36.519531 -14.554688 38.84375 -17.390625 C 39.507812 -18.160156 40.257812 -18.546875 41.09375 -18.546875 Z M 20.125 -30.609375 C 18.070312 -30.609375 16.335938 -29.414062 14.921875 -27.03125 C 13.515625 -24.644531 12.8125 -21.765625 12.8125 -18.390625 L 12.8125 -18.21875 C 16.082031 -18.988281 18.660156 -20.148438 20.546875 -21.703125 C 22.429688 -23.265625 23.375 -25.070312 23.375 -27.125 C 23.375 -28.175781 23.082031 -29.019531 22.5 -29.65625 C 21.914062 -30.289062 21.125 -30.609375 20.125 -30.609375 Z M 20.125 -30.609375 "/></g></g></g><g fill="#edb8b6" fill-opacity="1"><g transform="translate(106.46672, 108.13034)"><g><path d="M 14.21875 0.421875 C 10.78125 0.421875 8.035156 -0.828125 5.984375 -3.328125 C 3.929688 -5.828125 2.90625 -9.097656 2.90625 -13.140625 C 2.90625 -17.578125 3.929688 -21.773438 5.984375 -25.734375 C 8.035156 -29.703125 10.765625 -32.894531 14.171875 -35.3125 C 17.585938 -37.726562 21.210938 -38.9375 25.046875 -38.9375 C 26.265625 -38.9375 27.082031 -38.695312 27.5 -38.21875 C 27.914062 -37.75 28.257812 -36.90625 28.53125 -35.6875 C 29.695312 -35.90625 30.914062 -36.015625 32.1875 -36.015625 C 34.90625 -36.015625 36.265625 -35.046875 36.265625 -33.109375 C 36.265625 -31.941406 35.847656 -29.171875 35.015625 -24.796875 C 33.742188 -18.410156 33.109375 -13.972656 33.109375 -11.484375 C 33.109375 -10.648438 33.316406 -9.984375 33.734375 -9.484375 C 34.148438 -8.984375 34.691406 -8.734375 35.359375 -8.734375 C 36.410156 -8.734375 37.679688 -9.410156 39.171875 -10.765625 C 40.671875 -12.128906 42.695312 -14.335938 45.25 -17.390625 C 45.914062 -18.160156 46.664062 -18.546875 47.5 -18.546875 C 48.21875 -18.546875 48.785156 -18.210938 49.203125 -17.546875 C 49.617188 -16.878906 49.828125 -15.96875 49.828125 -14.8125 C 49.828125 -12.59375 49.300781 -10.875 48.25 -9.65625 C 45.976562 -6.820312 43.566406 -4.429688 41.015625 -2.484375 C 38.460938 -0.546875 35.992188 0.421875 33.609375 0.421875 C 31.773438 0.421875 30.09375 -0.203125 28.5625 -1.453125 C 27.039062 -2.703125 25.894531 -4.410156 25.125 -6.578125 C 22.238281 -1.910156 18.601562 0.421875 14.21875 0.421875 Z M 17.21875 -7.984375 C 18.4375 -7.984375 19.597656 -8.703125 20.703125 -10.140625 C 21.816406 -11.585938 22.625 -13.503906 23.125 -15.890625 L 26.203125 -31.203125 C 23.867188 -31.140625 21.71875 -30.257812 19.75 -28.5625 C 17.78125 -26.875 16.210938 -24.644531 15.046875 -21.875 C 13.890625 -19.101562 13.3125 -16.164062 13.3125 -13.0625 C 13.3125 -11.34375 13.65625 -10.066406 14.34375 -9.234375 C 15.039062 -8.398438 16 -7.984375 17.21875 -7.984375 Z M 17.21875 -7.984375 "/></g></g></g><g fill="#edb8b6" fill-opacity="1"><g transform="translate(145.564568, 108.13034)"><g><path d="M 51.25 -18.546875 C 51.96875 -18.546875 52.535156 -18.210938 52.953125 -17.546875 C 53.367188 -16.878906 53.578125 -15.96875 53.578125 -14.8125 C 53.578125 -12.59375 53.050781 -10.875 52 -9.65625 C 49.71875 -6.875 47.21875 -4.5 44.5 -2.53125 C 41.78125 -0.5625 39.09375 0.421875 36.4375 0.421875 C 32.21875 0.421875 29 -2.046875 26.78125 -6.984375 C 24.457031 -4.046875 22.421875 -2.078125 20.671875 -1.078125 C 18.921875 -0.078125 16.882812 0.421875 14.5625 0.421875 C 11.175781 0.421875 8.382812 -0.835938 6.1875 -3.359375 C 4 -5.890625 2.90625 -9.179688 2.90625 -13.234375 C 2.90625 -17.660156 3.847656 -21.773438 5.734375 -25.578125 C 7.617188 -29.378906 10.210938 -32.484375 13.515625 -34.890625 C 16.816406 -37.304688 20.519531 -38.738281 24.625 -39.1875 C 25.675781 -49.9375 27.6875 -59.125 30.65625 -66.75 C 33.625 -74.382812 37.519531 -78.203125 42.34375 -78.203125 C 44.726562 -78.203125 46.707031 -77.117188 48.28125 -74.953125 C 49.863281 -72.785156 50.65625 -69.515625 50.65625 -65.140625 C 50.65625 -58.921875 49.128906 -51.648438 46.078125 -43.328125 C 43.035156 -35.015625 38.960938 -26.476562 33.859375 -17.71875 C 34.078125 -14.5 34.5625 -12.195312 35.3125 -10.8125 C 36.0625 -9.425781 37.019531 -8.734375 38.1875 -8.734375 C 39.675781 -8.734375 41.195312 -9.398438 42.75 -10.734375 C 44.3125 -12.066406 46.394531 -14.285156 49 -17.390625 C 49.664062 -18.160156 50.414062 -18.546875 51.25 -18.546875 Z M 41.421875 -70.046875 C 40.367188 -70.046875 39.316406 -68.171875 38.265625 -64.421875 C 37.210938 -60.679688 36.3125 -55.785156 35.5625 -49.734375 C 34.8125 -43.691406 34.269531 -37.375 33.9375 -30.78125 C 40.144531 -44.3125 43.25 -55.179688 43.25 -63.390625 C 43.25 -65.492188 43.066406 -67.128906 42.703125 -68.296875 C 42.347656 -69.460938 41.921875 -70.046875 41.421875 -70.046875 Z M 17.46875 -7.984375 C 18.519531 -7.984375 19.570312 -8.410156 20.625 -9.265625 C 21.6875 -10.128906 23.019531 -11.726562 24.625 -14.0625 C 24.070312 -17.050781 23.796875 -20.40625 23.796875 -24.125 C 23.796875 -25.457031 23.847656 -27.617188 23.953125 -30.609375 C 20.898438 -29.671875 18.363281 -27.632812 16.34375 -24.5 C 14.320312 -21.363281 13.3125 -17.882812 13.3125 -14.0625 C 13.3125 -10.007812 14.695312 -7.984375 17.46875 -7.984375 Z M 17.46875 -7.984375 "/></g></g></g></g></g><g transform="matrix(1, 0, 0, 1, 213, 161)"><g clip-path="url(#6d9838e697)"><g fill="#edb8b6" fill-opacity="1"><g transform="translate(1.465279, 67.920377)"><g><path d="M 14.96875 -8.484375 L 29.359375 -8.484375 L 29.359375 0 L 3.984375 0 L 3.984375 -45.109375 L 14.96875 -45.109375 Z M 14.96875 -8.484375 "/></g></g></g><g fill="#edb8b6" fill-opacity="1"><g transform="translate(32.107843, 67.920377)"><g><path d="M 25.3125 0.453125 C 21.070312 0.453125 17.1875 -0.53125 13.65625 -2.5 C 10.125 -4.476562 7.316406 -7.234375 5.234375 -10.765625 C 3.160156 -14.296875 2.125 -18.269531 2.125 -22.6875 C 2.125 -27.09375 3.160156 -31.050781 5.234375 -34.5625 C 7.316406 -38.070312 10.125 -40.8125 13.65625 -42.78125 C 17.1875 -44.757812 21.070312 -45.75 25.3125 -45.75 C 29.550781 -45.75 33.4375 -44.757812 36.96875 -42.78125 C 40.507812 -40.8125 43.296875 -38.070312 45.328125 -34.5625 C 47.359375 -31.050781 48.375 -27.09375 48.375 -22.6875 C 48.375 -18.269531 47.347656 -14.296875 45.296875 -10.765625 C 43.242188 -7.234375 40.457031 -4.476562 36.9375 -2.5 C 33.425781 -0.53125 29.550781 0.453125 25.3125 0.453125 Z M 25.3125 -9.578125 C 28.914062 -9.578125 31.796875 -10.773438 33.953125 -13.171875 C 36.117188 -15.566406 37.203125 -18.738281 37.203125 -22.6875 C 37.203125 -26.664062 36.117188 -29.84375 33.953125 -32.21875 C 31.796875 -34.59375 28.914062 -35.78125 25.3125 -35.78125 C 21.675781 -35.78125 18.773438 -34.601562 16.609375 -32.25 C 14.441406 -29.894531 13.359375 -26.707031 13.359375 -22.6875 C 13.359375 -18.695312 14.441406 -15.515625 16.609375 -13.140625 C 18.773438 -10.765625 21.675781 -9.578125 25.3125 -9.578125 Z M 25.3125 -9.578125 "/></g></g></g><g fill="#edb8b6" fill-opacity="1"><g transform="translate(82.600615, 67.920377)"><g><path d="M 33.921875 -30.84375 C 33.109375 -32.34375 31.941406 -33.488281 30.421875 -34.28125 C 28.898438 -35.070312 27.113281 -35.46875 25.0625 -35.46875 C 21.5 -35.46875 18.644531 -34.300781 16.5 -31.96875 C 14.363281 -29.632812 13.296875 -26.515625 13.296875 -22.609375 C 13.296875 -18.460938 14.421875 -15.21875 16.671875 -12.875 C 18.921875 -10.539062 22.015625 -9.375 25.953125 -9.375 C 28.648438 -9.375 30.929688 -10.0625 32.796875 -11.4375 C 34.660156 -12.8125 36.019531 -14.78125 36.875 -17.34375 L 22.9375 -17.34375 L 22.9375 -25.4375 L 46.84375 -25.4375 L 46.84375 -15.234375 C 46.03125 -12.484375 44.644531 -9.929688 42.6875 -7.578125 C 40.738281 -5.222656 38.265625 -3.316406 35.265625 -1.859375 C 32.273438 -0.398438 28.894531 0.328125 25.125 0.328125 C 20.664062 0.328125 16.691406 -0.644531 13.203125 -2.59375 C 9.710938 -4.550781 6.992188 -7.265625 5.046875 -10.734375 C 3.097656 -14.203125 2.125 -18.160156 2.125 -22.609375 C 2.125 -27.066406 3.097656 -31.039062 5.046875 -34.53125 C 6.992188 -38.019531 9.703125 -40.738281 13.171875 -42.6875 C 16.640625 -44.644531 20.601562 -45.625 25.0625 -45.625 C 30.457031 -45.625 35.003906 -44.316406 38.703125 -41.703125 C 42.410156 -39.085938 44.863281 -35.46875 46.0625 -30.84375 Z M 33.921875 -30.84375 "/></g></g></g></g></g><g clip-path="url(#ef79d88602)"><path fill="#edb8b6" d="M 279.902344 240.042969 C 270.132812 239.835938 260.355469 239.683594 250.582031 239.582031 C 251.3125 239.410156 251.945312 239.125 252.371094 238.652344 C 252.636719 238.359375 252.496094 237.914062 252.367188 237.609375 C 252.261719 237.355469 252.015625 236.789062 251.550781 236.707031 C 242.9375 235.1875 233.882812 235.308594 225.027344 235.390625 C 215.789062 235.476562 206.550781 235.714844 197.332031 236.101562 C 178.925781 236.875 160.691406 238.367188 142.488281 240.246094 C 137.332031 240.777344 132.171875 241.300781 127.011719 241.808594 C 124.519531 242.054688 122.027344 242.289062 119.527344 242.503906 C 118.230469 242.613281 116.933594 242.734375 115.636719 242.851562 C 114.992188 242.90625 114.347656 242.972656 113.703125 243.035156 C 113.488281 243.054688 113.269531 243.074219 113.054688 243.09375 C 112.679688 243.128906 112.308594 243.160156 111.933594 243.1875 C 111.625 243.261719 111.320312 243.34375 111.019531 243.433594 C 110.691406 243.503906 110.152344 243.648438 109.984375 243.859375 C 109.902344 243.96875 109.894531 244.039062 109.988281 244.070312 C 109.984375 244.074219 109.980469 244.074219 109.976562 244.074219 C 110.375 244.144531 110.660156 244.226562 111.074219 244.226562 C 111.300781 244.222656 111.53125 244.214844 111.761719 244.210938 C 112.332031 244.195312 112.90625 244.183594 113.480469 244.167969 C 113.695312 244.160156 113.914062 244.152344 114.132812 244.144531 C 115.023438 244.21875 115.910156 244.304688 116.789062 244.351562 C 116.878906 244.359375 116.695312 244.136719 116.582031 244.125 C 116.394531 244.105469 116.203125 244.082031 116.015625 244.066406 C 116.425781 244.046875 116.839844 244.027344 117.25 244.011719 C 119.632812 243.917969 122.011719 243.730469 124.382812 243.5625 C 129.070312 243.230469 133.738281 242.8125 138.410156 242.390625 C 147.695312 241.554688 156.960938 240.652344 166.277344 239.953125 C 184.699219 238.5625 203.207031 237.695312 221.753906 237.445312 C 229.464844 237.34375 237.40625 237.121094 245.105469 237.796875 C 242.855469 237.773438 240.605469 237.757812 238.351562 237.769531 C 233.109375 237.800781 227.871094 237.945312 222.640625 238.175781 C 213.140625 238.585938 203.679688 239.28125 194.242188 240.089844 C 187.183594 240.472656 180.152344 241.058594 173.222656 242 C 172.460938 242.105469 173.140625 244.09375 173.980469 244.011719 C 179.910156 243.429688 185.855469 242.855469 191.808594 242.332031 C 199.714844 241.820312 207.664062 241.578125 215.617188 241.484375 C 229.597656 241.324219 243.59375 241.445312 257.570312 241.617188 C 262.824219 241.679688 268.078125 241.761719 273.335938 241.855469 C 273.414062 242.089844 273.554688 242.257812 273.761719 242.246094 C 276.335938 242.144531 278.917969 242.148438 281.492188 242.011719 C 282.414062 241.964844 280.804688 240.058594 279.902344 240.042969 " fill-opacity="1" fill-rule="nonzero"/></g><g transform="matrix(1, 0, 0, 1, 295, 140)"><g clip-path="url(#338b6f3804)"><g fill="#edb8b6" fill-opacity="1"><g transform="translate(12.144837, 44.095876)"><g><path d="M 1.828125 -4.40625 L -1.6875 -3.921875 L -2.140625 -2.828125 L 0.6875 -1.65625 L 0.3125 -0.765625 L -6.59375 -3.625 L -5.671875 -5.84375 C -5.453125 -6.363281 -5.175781 -6.765625 -4.84375 -7.046875 C -4.507812 -7.335938 -4.15625 -7.507812 -3.78125 -7.5625 C -3.40625 -7.625 -3.023438 -7.570312 -2.640625 -7.40625 C -2.160156 -7.207031 -1.796875 -6.894531 -1.546875 -6.46875 C -1.304688 -6.039062 -1.238281 -5.53125 -1.34375 -4.9375 L 2.265625 -5.46875 Z M -2.859375 -3.125 L -2.3125 -4.453125 C -2.101562 -4.941406 -2.066406 -5.359375 -2.203125 -5.703125 C -2.347656 -6.046875 -2.625 -6.300781 -3.03125 -6.46875 C -3.4375 -6.632812 -3.800781 -6.644531 -4.125 -6.5 C -4.457031 -6.351562 -4.726562 -6.03125 -4.9375 -5.53125 L -5.484375 -4.203125 Z M -2.859375 -3.125 "/></g></g></g><g fill="#edb8b6" fill-opacity="1"><g transform="translate(14.34292, 38.729739)"><g><path d="M -4.484375 -5.265625 L -2.4375 -3.859375 L -0.890625 -6.09375 L -0.21875 -5.640625 L -1.765625 -3.40625 L 0.359375 -1.9375 L 2.09375 -4.4375 L 2.75 -3.984375 L 0.46875 -0.6875 L -5.6875 -4.9375 L -3.40625 -8.234375 L -2.75 -7.765625 Z M -4.484375 -5.265625 "/></g></g></g><g fill="#edb8b6" fill-opacity="1"><g transform="translate(16.896471, 34.711223)"><g><path d="M 2.734375 -4.765625 L 0.328125 -2.5625 L 1.015625 -0.9375 L 0.265625 -0.25 L -2.78125 -7.546875 L -1.953125 -8.296875 L 5.0625 -4.65625 L 4.296875 -3.953125 Z M 2 -5.171875 L -1.5625 -7.03125 L 0.015625 -3.34375 Z M 2 -5.171875 "/></g></g></g><g fill="#edb8b6" fill-opacity="1"><g transform="translate(21.491539, 30.301524)"><g><path d="M -0.671875 -8.078125 C 0.046875 -8.453125 0.738281 -8.644531 1.40625 -8.65625 C 2.070312 -8.664062 2.675781 -8.492188 3.21875 -8.140625 C 3.769531 -7.785156 4.222656 -7.273438 4.578125 -6.609375 C 4.929688 -5.929688 5.097656 -5.265625 5.078125 -4.609375 C 5.054688 -3.960938 4.847656 -3.367188 4.453125 -2.828125 C 4.066406 -2.296875 3.515625 -1.84375 2.796875 -1.46875 L 0.734375 -0.390625 L -2.734375 -7 Z M 2.421875 -2.171875 C 3.265625 -2.617188 3.789062 -3.1875 4 -3.875 C 4.21875 -4.570312 4.113281 -5.328125 3.6875 -6.140625 C 3.257812 -6.960938 2.695312 -7.484375 2 -7.703125 C 1.3125 -7.929688 0.546875 -7.820312 -0.296875 -7.375 L -1.5 -6.734375 L 1.21875 -1.53125 Z M 2.421875 -2.171875 "/></g></g></g><g fill="#edb8b6" fill-opacity="1"><g transform="translate(27.717565, 27.219453)"><g><path d="M -0.515625 -7.65625 L 1.71875 -0.53125 L 0.796875 -0.25 L -1.4375 -7.375 Z M -0.515625 -7.65625 "/></g></g></g><g fill="#edb8b6" fill-opacity="1"><g transform="translate(29.589328, 26.346803)"><g><path d="M 6.65625 -0.84375 L 5.671875 -0.71875 L 1.03125 -6.125 L 1.78125 -0.21875 L 0.828125 -0.109375 L -0.109375 -7.53125 L 0.84375 -7.640625 L 5.484375 -2.25 L 4.734375 -8.140625 L 5.71875 -8.265625 Z M 6.65625 -0.84375 "/></g></g></g><g fill="#edb8b6" fill-opacity="1"><g transform="translate(36.143061, 25.336063)"><g><path d="M 7.21875 -4.265625 C 7.070312 -4.722656 6.820312 -5.097656 6.46875 -5.390625 C 6.125 -5.679688 5.695312 -5.867188 5.1875 -5.953125 C 4.664062 -6.023438 4.175781 -5.976562 3.71875 -5.8125 C 3.269531 -5.644531 2.894531 -5.359375 2.59375 -4.953125 C 2.289062 -4.554688 2.097656 -4.0625 2.015625 -3.46875 C 1.921875 -2.894531 1.957031 -2.367188 2.125 -1.890625 C 2.289062 -1.421875 2.5625 -1.03125 2.9375 -0.71875 C 3.320312 -0.414062 3.773438 -0.226562 4.296875 -0.15625 C 5.015625 -0.0390625 5.640625 -0.160156 6.171875 -0.515625 C 6.703125 -0.878906 7.066406 -1.425781 7.265625 -2.15625 L 4.3125 -2.609375 L 4.421875 -3.390625 L 8.390625 -2.78125 L 8.28125 -2.046875 C 8.132812 -1.441406 7.859375 -0.910156 7.453125 -0.453125 C 7.054688 0.00390625 6.566406 0.335938 5.984375 0.546875 C 5.410156 0.753906 4.800781 0.804688 4.15625 0.703125 C 3.46875 0.597656 2.863281 0.34375 2.34375 -0.0625 C 1.832031 -0.46875 1.457031 -0.984375 1.21875 -1.609375 C 0.976562 -2.234375 0.914062 -2.90625 1.03125 -3.625 C 1.132812 -4.34375 1.394531 -4.960938 1.8125 -5.484375 C 2.226562 -6.015625 2.742188 -6.394531 3.359375 -6.625 C 3.984375 -6.863281 4.640625 -6.929688 5.328125 -6.828125 C 6.109375 -6.703125 6.769531 -6.394531 7.3125 -5.90625 C 7.851562 -5.425781 8.207031 -4.816406 8.375 -4.078125 Z M 7.21875 -4.265625 "/></g></g></g><g fill="#edb8b6" fill-opacity="1"><g transform="translate(43.666359, 26.705131)"><g/></g></g><g fill="#edb8b6" fill-opacity="1"><g transform="translate(45.90361, 27.31358)"><g><path d="M 4.140625 2.34375 L 4.109375 -1.203125 L 3.078125 -1.78125 L 1.5625 0.890625 L 0.71875 0.40625 L 4.390625 -6.09375 L 6.484375 -4.90625 C 6.972656 -4.625 7.335938 -4.300781 7.578125 -3.9375 C 7.828125 -3.582031 7.957031 -3.210938 7.96875 -2.828125 C 7.976562 -2.453125 7.882812 -2.082031 7.6875 -1.71875 C 7.425781 -1.269531 7.066406 -0.945312 6.609375 -0.75 C 6.160156 -0.550781 5.644531 -0.539062 5.0625 -0.71875 L 5.15625 2.921875 Z M 3.453125 -2.453125 L 4.703125 -1.75 C 5.171875 -1.488281 5.582031 -1.40625 5.9375 -1.5 C 6.300781 -1.601562 6.59375 -1.84375 6.8125 -2.21875 C 7.019531 -2.601562 7.066406 -2.960938 6.953125 -3.296875 C 6.847656 -3.640625 6.5625 -3.945312 6.09375 -4.21875 L 4.84375 -4.921875 Z M 3.453125 -2.453125 "/></g></g></g><g fill="#edb8b6" fill-opacity="1"><g transform="translate(50.960446, 30.15117)"><g><path d="M 5.78125 -3.796875 L 4.125 -1.9375 L 6.15625 -0.125 L 5.609375 0.484375 L 3.578125 -1.328125 L 1.875 0.59375 L 4.15625 2.625 L 3.625 3.21875 L 0.625 0.546875 L 5.59375 -5.046875 L 8.59375 -2.375 L 8.0625 -1.765625 Z M 5.78125 -3.796875 "/></g></g></g><g fill="#edb8b6" fill-opacity="1"><g transform="translate(54.62316, 33.326724)"><g><path d="M 9 -0.515625 L 8.359375 -0.03125 L 6.390625 -2.625 L 4.390625 -1.109375 L 6 1 L 5.375 1.484375 L 3.765625 -0.625 L 1.09375 1.421875 L 0.5 0.65625 L 6.4375 -3.875 Z M 9 -0.515625 "/></g></g></g><g fill="#edb8b6" fill-opacity="1"><g transform="translate(57.552927, 37.12536)"><g><path d="M 1.53125 1.234375 L 2.734375 3.5625 L 2.03125 3.921875 L 0.375 0.734375 L 7.015625 -2.6875 L 7.46875 -1.828125 Z M 1.53125 1.234375 "/></g></g></g><g fill="#edb8b6" fill-opacity="1"><g transform="translate(59.482833, 40.660495)"><g><path d="M 6.90625 -0.25 L 4.53125 0.484375 L 5.328125 3.078125 L 4.546875 3.3125 L 3.75 0.71875 L 1.296875 1.484375 L 2.1875 4.390625 L 1.421875 4.625 L 0.25 0.796875 L 7.40625 -1.40625 L 8.578125 2.421875 L 7.796875 2.65625 Z M 6.90625 -0.25 "/></g></g></g><g fill="#edb8b6" fill-opacity="1"><g transform="translate(61.122954, 45.085926)"><g><path d="M 3.765625 0.234375 C 4.492188 0.191406 5.15625 0.320312 5.75 0.625 C 6.34375 0.925781 6.816406 1.351562 7.171875 1.90625 C 7.535156 2.457031 7.738281 3.078125 7.78125 3.765625 C 7.832031 4.566406 7.675781 5.28125 7.3125 5.90625 C 6.957031 6.539062 6.429688 7.019531 5.734375 7.34375 L 5.671875 6.171875 C 6.097656 5.929688 6.421875 5.609375 6.640625 5.203125 C 6.859375 4.804688 6.953125 4.34375 6.921875 3.8125 C 6.890625 3.289062 6.742188 2.828125 6.484375 2.421875 C 6.222656 2.023438 5.863281 1.71875 5.40625 1.5 C 4.945312 1.289062 4.414062 1.203125 3.8125 1.234375 C 3.21875 1.273438 2.707031 1.425781 2.28125 1.6875 C 1.851562 1.945312 1.523438 2.289062 1.296875 2.71875 C 1.078125 3.144531 0.984375 3.617188 1.015625 4.140625 C 1.046875 4.671875 1.191406 5.125 1.453125 5.5 C 1.710938 5.882812 2.078125 6.164062 2.546875 6.34375 L 2.609375 7.515625 C 1.878906 7.273438 1.300781 6.859375 0.875 6.265625 C 0.457031 5.679688 0.222656 4.988281 0.171875 4.1875 C 0.128906 3.5 0.253906 2.863281 0.546875 2.28125 C 0.835938 1.695312 1.265625 1.21875 1.828125 0.84375 C 2.390625 0.476562 3.035156 0.273438 3.765625 0.234375 Z M 3.765625 0.234375 "/></g></g></g><g fill="#edb8b6" fill-opacity="1"><g transform="translate(61.495698, 52.509666)"><g><path d="M 6.296875 6.734375 L 5.515625 6.59375 L 5.90625 4.59375 L -0.640625 3.328125 L -0.453125 2.359375 L 6.09375 3.625 L 6.484375 1.625 L 7.265625 1.765625 Z M 6.296875 6.734375 "/></g></g></g><g fill="#edb8b6" fill-opacity="1"><g transform="translate(60.41884, 57.678873)"><g><path d="M 6.453125 4.171875 L -0.59375 1.6875 L -0.28125 0.78125 L 6.765625 3.265625 Z M 6.453125 4.171875 "/></g></g></g><g fill="#edb8b6" fill-opacity="1"><g transform="translate(60.077412, 59.684004)"><g><path d="M -2.203125 3.59375 C -1.847656 2.988281 -1.382812 2.519531 -0.8125 2.1875 C -0.238281 1.863281 0.378906 1.707031 1.046875 1.71875 C 1.710938 1.726562 2.359375 1.914062 2.984375 2.28125 C 3.609375 2.65625 4.085938 3.132812 4.421875 3.71875 C 4.765625 4.300781 4.929688 4.921875 4.921875 5.578125 C 4.910156 6.242188 4.726562 6.878906 4.375 7.484375 C 4.019531 8.078125 3.554688 8.535156 2.984375 8.859375 C 2.410156 9.191406 1.789062 9.351562 1.125 9.34375 C 0.457031 9.332031 -0.191406 9.132812 -0.828125 8.75 C -1.453125 8.382812 -1.929688 7.910156 -2.265625 7.328125 C -2.597656 6.753906 -2.757812 6.132812 -2.75 5.46875 C -2.738281 4.8125 -2.554688 4.1875 -2.203125 3.59375 Z M -1.484375 4.03125 C -1.753906 4.476562 -1.882812 4.941406 -1.875 5.421875 C -1.875 5.910156 -1.742188 6.367188 -1.484375 6.796875 C -1.222656 7.222656 -0.835938 7.585938 -0.328125 7.890625 C 0.191406 8.203125 0.707031 8.367188 1.21875 8.390625 C 1.726562 8.421875 2.1875 8.316406 2.59375 8.078125 C 3.007812 7.835938 3.351562 7.492188 3.625 7.046875 C 3.894531 6.585938 4.03125 6.117188 4.03125 5.640625 C 4.039062 5.160156 3.914062 4.703125 3.65625 4.265625 C 3.394531 3.828125 3.003906 3.453125 2.484375 3.140625 C 1.972656 2.835938 1.460938 2.675781 0.953125 2.65625 C 0.441406 2.644531 -0.0234375 2.753906 -0.453125 2.984375 C -0.878906 3.222656 -1.222656 3.570312 -1.484375 4.03125 Z M -1.484375 4.03125 "/></g></g></g><g fill="#edb8b6" fill-opacity="1"><g transform="translate(56.325817, 66.175969)"><g><path d="M -4.875 4.609375 L -4.15625 3.921875 L 2.78125 5.5625 L -1.3125 1.234375 L -0.609375 0.5625 L 4.53125 6 L 3.828125 6.671875 L -3.09375 5.046875 L 0.984375 9.359375 L 0.265625 10.046875 Z M -4.875 4.609375 "/></g></g></g></g></g></svg>